<?xml version="1.0" encoding="UTF-8" standalone="no"?>
<svg width="129px" height="35px" viewBox="0 0 129 35" version="1.1" xmlns="http://www.w3.org/2000/svg" xmlns:xlink="http://www.w3.org/1999/xlink">
    <!-- Generator: Sketch 43.2 (39069) - http://www.bohemiancoding.com/sketch -->
    <title>logo</title>
    <desc>Created with Sketch.</desc>
    <defs></defs>
    <g id="Page-1" stroke="none" stroke-width="1" fill="none" fill-rule="evenodd">
        <g id="logo" transform="translate(1.000000, 1.000000)">
            <path d="M48,19.28 L48,28.04 L45.55,28.04 L45.55,6.99 L51.33,6.99 C53.91,6.99 55.8166667,7.48333333 57.05,8.47 C58.3278466,9.57441423 59.012886,11.2148058 58.9,12.9 C58.9,15.6866667 57.49,17.57 54.67,18.55 L60.39,28.01 L57.5,28.01 L52.4,19.25 L48.01,19.25 L48,19.28 Z M48,17.18 L51.36,17.18 C52.7044361,17.2989595 54.0482688,16.9453193 55.16,16.18 C56.0117761,15.3872796 56.4569902,14.2503279 56.37,13.09 C56.4741124,11.9491997 56.0149827,10.8293713 55.14,10.09 C53.9365107,9.37052022 52.5368899,9.04860744 51.14,9.17 L47.96,9.17 L47.96,17.22 L48,17.18 Z" id="Shape" fill="#000000" fill-rule="nonzero"></path>
            <path d="M69.75,28.33 C67.6908238,28.4372751 65.6833841,27.6626652 64.23,26.2 C62.8128927,24.5652405 62.0946488,22.4392387 62.23,20.28 C62.1138231,18.1004253 62.7806062,15.9511138 64.11,14.22 C65.3402451,12.7387232 67.1854515,11.9083804 69.11,11.97 C70.8963786,11.9032255 72.6194968,12.6364673 73.81,13.97 C75.011736,15.4091749 75.629164,17.247183 75.54,19.12 L75.54,20.63 L64.66,20.63 C64.5945738,22.1605862 65.0926831,23.66203 66.06,24.85 C67.0438664,25.8482982 68.4108331,26.3732135 69.81,26.29 C71.5319725,26.2760041 73.2331119,25.9119603 74.81,25.22 L74.81,27.35 C74.0383212,27.6926436 73.2343244,27.9572926 72.41,28.14 C71.531785,28.2910336 70.6407658,28.3546778 69.75,28.33 L69.75,28.33 Z M69.1,13.97 C67.9673206,13.9277457 66.8722949,14.3803564 66.1,15.21 C65.283185,16.17265 64.8084365,17.3788628 64.75,18.64 L73,18.64 C73.084208,17.4049257 72.7301035,16.1797242 72,15.18 C71.2720026,14.344612 70.1956828,13.8970701 69.09,13.97 L69.1,13.97 Z" id="Shape" fill="#000000" fill-rule="nonzero"></path>
            <path d="M89.44,23.73 C89.49611,25.0662355 88.8806912,26.3421038 87.8,27.13 C86.428248,28.0059524 84.8147428,28.4259537 83.19,28.33 C81.4983332,28.4170534 79.8122762,28.0729601 78.29,27.33 L78.29,25.12 C79.0672681,25.5124274 79.8855835,25.8176188 80.73,26.03 C81.5496364,26.2442149 82.3928473,26.3550753 83.24,26.36 C84.2359626,26.4154466 85.2290379,26.2085559 86.12,25.76 C86.706405,25.4119197 87.0825511,24.7961975 87.1245903,24.1155629 C87.1666295,23.4349283 86.8691132,22.7775976 86.33,22.36 C85.3667235,21.7014678 84.3167052,21.1798241 83.21,20.81 C82.1207797,20.4409444 81.0720238,19.9618003 80.08,19.38 C79.5367049,19.0238683 79.081828,18.5484707 78.75,17.99 C78.4358717,17.42159 78.2804404,16.7791409 78.3,16.13 C78.2801495,14.9283254 78.8713433,13.7986558 79.87,13.13 C81.1552207,12.3175045 82.6618152,11.9259997 84.18,12.01 C85.8974012,11.9990887 87.5989033,12.3393891 89.18,13.01 L88.26,14.9 C86.902095,14.2893759 85.4380519,13.9496907 83.95,13.9 C83.0647645,13.8465066 82.1812294,14.029426 81.39,14.43 C80.8530616,14.7227581 80.5220907,15.2884875 80.53,15.9 C80.5176657,16.2850559 80.629891,16.6638162 80.85,16.98 C81.1208153,17.3295825 81.4613548,17.619041 81.85,17.83 C82.7473522,18.2788582 83.6725872,18.6696614 84.62,19 C86.0139941,19.412858 87.3053706,20.1147671 88.41,21.06 C89.104474,21.7714016 89.4767796,22.7365044 89.44,23.73 Z" id="Shape" fill="#000000" fill-rule="nonzero"></path>
            <path d="M92.75,7.98 C92.7116404,7.5418948 92.8564492,7.10746838 93.15,6.78 C93.717635,6.26610849 94.582365,6.26610849 95.15,6.78 C95.4540403,7.10221728 95.6067424,7.53850879 95.57,7.98 C95.6029725,8.42100249 95.4507885,8.85581388 95.15,9.18 C94.8833422,9.44134689 94.5233363,9.58534925 94.15,9.58 C93.7762475,9.58761599 93.4153959,9.44327534 93.15,9.18 C92.8595616,8.8507318 92.7152102,8.41767761 92.75,7.98 L92.75,7.98 Z M95.34,28.04 L92.95,28.04 L92.95,12.26 L95.34,12.26 L95.34,28.04 Z" id="Shape" fill="#000000" fill-rule="nonzero"></path>
            <polygon id="Shape" fill="#000000" fill-rule="nonzero" points="102.47 28.04 100.08 28.04 100.08 5.63 102.47 5.63"></polygon>
            <path d="M106.99,7.98 C106.95164,7.5418948 107.096449,7.10746838 107.39,6.78 C107.957635,6.26610849 108.822365,6.26610849 109.39,6.78 C109.69404,7.10221728 109.846742,7.53850879 109.81,7.98 C109.842973,8.42100249 109.690789,8.85581388 109.39,9.18 C109.123342,9.44134689 108.763336,9.58534925 108.39,9.58 C108.016248,9.58761599 107.655396,9.44327534 107.39,9.18 C107.099562,8.8507318 106.95521,8.41767761 106.99,7.98 L106.99,7.98 Z M109.58,28.04 L107.19,28.04 L107.19,12.26 L109.58,12.26 L109.58,28.04 Z" id="Shape" fill="#000000" fill-rule="nonzero"></path>
            <path d="M127.92,20.13 C128.045418,22.3021043 127.353357,24.4424997 125.98,26.13 C124.598884,27.6117253 122.632798,28.4062145 120.61,28.3 C119.288068,28.3227423 117.985979,27.976442 116.85,27.3 C115.739125,26.6232839 114.854894,25.6311346 114.31,24.45 C113.689134,23.0856551 113.384878,21.5985585 113.42,20.1 C113.289819,17.9289491 113.978489,15.7880067 115.35,14.1 C116.742915,12.6211598 118.722599,11.8402844 120.75,11.97 C122.743957,11.8806722 124.673394,12.6876608 126.01,14.17 C127.366523,15.8495637 128.047603,17.9748187 127.92,20.13 L127.92,20.13 Z M115.92,20.13 C115.810614,21.7574256 116.235466,23.3760761 117.13,24.74 C118.040014,25.7461989 119.333327,26.3203106 120.69,26.3203106 C122.046673,26.3203106 123.339986,25.7461989 124.25,24.74 C125.152217,23.375419 125.580883,21.7521096 125.47,20.12 C125.578755,18.5037787 125.149806,16.8969776 124.25,15.55 C123.375147,14.4811975 122.03828,13.9002747 120.66,13.99 C119.30031,13.9001862 117.981237,14.4740199 117.12,15.53 C116.215784,16.8865693 115.783516,18.5031783 115.89,20.13 L115.92,20.13 Z" id="Shape" fill="#000000" fill-rule="nonzero"></path>
            <path d="M0.04,16.3 L3.94,20.18 L0.05,16.29 C0.0689135022,24.4277041 6.10782355,31.2950065 14.1763336,32.3541248 C22.2448436,33.4132432 29.8515131,28.3371368 31.97,20.48" id="Shape" stroke="#000000" stroke-width="2.07" stroke-linecap="round" stroke-linejoin="round"></path>
            <path d="M28.58,12.31 L32.5,16.23 C32.4711857,8.09604558 26.4292769,1.23802691 18.3638053,0.184360973 C10.2983336,-0.869304966 2.69741052,4.20642645 0.58,12.06" id="Shape" stroke="#000000" stroke-width="2.07" stroke-linecap="round" stroke-linejoin="round"></path>
        </g>
    </g>
</svg>